#!OML:ASF X:\für Bonn\!DataBase\2005_08_12_Daniel\c3d\Daniel.ASF
:FULLY-SPECIFIED
:DEGREES
123
root 12.4851 9.43059 -2.6325 -1268.39 157.801 152.099
lowerback 92.7407 -5.58171 7.86974
upperback 5.72642 1.0001 -4.40233
thorax -11.3953 0.80581 -8.64109
lowerneck 4.75322 1.93148 -0.599543
upperneck 7.22116 2.4497 1.54894
head 1.40916 1.20755 0.571948
rclavicle 1.11319e-014 -1.7344e-014
rhumerus -301.802 31.2035 280.98
rradius 26.1032
rwrist 54.35
rhand -32.3949 731.102
rfingers 7.12502
rthumb -5.63006 701.197
lclavicle 1.11319e-014 -1.7344e-014
lhumerus -308.92 22.0379 -295.413
lradius 28.9876
lwrist -19.6532
lhand -49.4093 -744.757
lfingers 7.12502
lthumb -22.022 -355.991
rfemur -97.6143 -29.9757 59.3596
rtibia 116.922
rfoot 338.861 16.1119
rtoes 15.9095
lfemur -46.4321 42.3735 6.59558
ltibia 140.119
lfoot -14.1231 -34.4309
ltoes 5.99816
124
root 12.6756 9.31844 -2.59936 -1268.29 158.834 151.647
lowerback 92.347 -5.47709 8.15334
upperback 5.93411 1.23822 -4.47003
thorax -11.1641 0.8963 -8.911
lowerneck 4.76793 1.9639 -0.498146
upperneck 7.21298 2.50061 1.40968
head 1.40629 1.23277 0.511722
rclavicle -3.49861e-014 1.55549e-014
rhumerus -302.051 31.4757 282.496
rradius 27.0384
rwrist 53.5597
rhand -32.398 730.993
rfingers 7.12502
rthumb -5.63299 701.088
lclavicle -3.49861e-014 1.55549e-014
lhumerus -310.665 21.2785 -295.406
lradius 30.9393
lwrist -18.3132
lhand -50.0584 -744.861
lfingers 7.12502
lthumb -22.6451 -356.17
rfemur -97.8654 -30.2656 59.14
rtibia 117.817
rfoot 339.223 17.3011
rtoes 15.7577
lfemur -46.476 41.7579 5.73853
ltibia 140.46
lfoot -12.8831 -33.868
ltoes 5.46363
125
root 12.8654 9.20582 -2.56788 -1268.16 159.94 151.232
lowerback 91.8209 -5.3028 8.39953
upperback 6.18243 1.49287 -4.52641
thorax -10.908 0.995067 -9.16132
lowerneck 4.77154 2.02648 -0.485005
upperneck 7.30284 2.58645 1.28512
head 1.43498 1.27314 0.471756
rclavicle 2.54444e-014 -2.47487e-014
rhumerus -302.319 31.9941 284.594
rradius 28.4019
rwrist 52.2703
rhand -32.4119 730.86
rfingers 7.12502
rthumb -5.64643 700.955
lclavicle 2.54444e-014 -2.47487e-014
lhumerus -312.106 20.4978 -295.24
lradius 32.3267
lwrist -17.2162
lhand -50.7369 -744.98
lfingers 7.12502
lthumb -23.2962 -356.369
rfemur -98.1141 -30.5327 58.8807
rtibia 118.672
rfoot 339.709 18.572
rtoes 15.6935
lfemur -46.5419 41.2422 4.83698
ltibia 140.782
lfoot -11.6757 -33.3688
ltoes 4.96758
126
root 13.0566 9.0942 -2.53751 -1268.01 161.081 150.846
lowerback 91.1404 -5.13661 8.66031
upperback 6.49518 1.73242 -4.60101
thorax -10.601 1.09689 -9.43412
lowerneck 4.94538 2.10313 -0.483061
upperneck 7.34902 2.69141 1.12498
head 1.42167 1.32142 0.41995
rclavicle 4.45278e-014 -4.01545e-014
rhumerus -302.613 32.6172 286.961
rradius 29.9937
rwrist 50.8031
rhand -32.4383 730.701
rfingers 7.12502
rthumb -5.67195 700.797
lclavicle 4.45278e-014 -4.01545e-014
lhumerus -313.158 19.7526 -294.901
lradius 33.1211
lwrist -16.4685
lhand -51.4414 -745.165
lfingers 7.12502
lthumb -23.9719 -356.642
rfemur -98.3715 -30.8821 58.6134
rtibia 119.468
rfoot 340.312 19.937
rtoes 15.6956
lfemur -46.6525 40.7967 3.86563
ltibia 141.063
lfoot -10.4376 -32.9838
ltoes 4.50046
127
root 13.2522 8.98449 -2.50908 -1267.84 162.257 150.484
lowerback 90.3934 -4.96862 8.89124
upperback 6.80931 1.94436 -4.65151
thorax -10.3091 1.1854 -9.65644
lowerneck 5.29561 2.22809 -0.653949
upperneck 7.35351 2.85057 0.9833
head 1.36311 1.39158 0.399131
rclavicle 4.77083e-015 1.09232e-013
rhumerus -302.968 33.4285 289.501
rradius 31.7215
rwrist 49.2719
rhand -32.5281 730.561
rfingers 7.12502
rthumb -5.7586 700.659
lclavicle 4.77083e-015 1.09232e-013
lhumerus -314.06 19.1891 -294.397
lradius 33.4378
lwrist -16.0914
lhand -52.1119 -745.519
lfingers 7.12502
lthumb -24.6147 -357.081
rfemur -98.6605 -31.3862 58.3564
rtibia 120.217
rfoot 341.072 21.453
rtoes 15.8036
lfemur -46.7615 40.4102 2.84395
ltibia 141.285
lfoot -9.1157 -32.6897
ltoes 4.15236
128
root 13.4504 8.87177 -2.48 -1267.65 163.491 150.157
lowerback 89.5526 -4.79938 9.12213
upperback 7.15847 2.13828 -4.73042
thorax -9.99225 1.27453 -9.90904
lowerneck 5.61445 2.36467 -0.884243
upperneck 7.40594 3.0184 0.889977
head 1.32359 1.46516 0.403387
rclavicle -2.06736e-014 -1.45411e-013
rhumerus -303.329 34.295 292.042
rradius 33.4307
rwrist 47.7423
rhand -32.7036 730.296
rfingers 7.12502
rthumb -5.92805 700.399
lclavicle -2.06736e-014 -1.45411e-013
lhumerus -314.679 18.7495 -293.727
lradius 33.1517
lwrist -16.0678
lhand -52.8579 -746.148
lfingers 7.12502
lthumb -25.3296 -357.81
rfemur -99.0095 -31.9282 58.0967
rtibia 120.934
rfoot 341.943 22.9904
rtoes 15.766
lfemur -46.8708 40.1116 1.75842
ltibia 141.469
lfoot -7.72165 -32.5264
ltoes 3.92697
129
root 13.6508 8.75887 -2.45079 -1267.46 164.742 149.881
lowerback 88.2545 -4.67939 9.4148
upperback 7.96593 2.28358 -4.76603
thorax -9.70078 1.33936 -10.2168
lowerneck 5.99804 2.51011 -1.20842
upperneck 7.41588 3.1897 0.816263
head 1.25838 1.53831 0.427079
rclavicle -1.00187e-013 -3.2228e-014
rhumerus -303.723 35.1497 294.413
rradius 34.9931
rwrist 46.3669
rhand -32.9026 730.09
rfingers 7.12502
rthumb -6.12013 700.198
lclavicle -1.00187e-013 -3.2228e-014
lhumerus -315.158 18.4409 -292.914
lradius 32.3909
lwrist -16.4401
lhand -53.6874 -747.016
lfingers 7.12502
lthumb -26.124 -358.793
rfemur -99.3691 -32.5907 57.7663
rtibia 121.619
rfoot 343.004 24.6561
rtoes 15.9013
lfemur -46.9625 39.8529 0.59545
ltibia 141.596
lfoot -6.33226 -32.5804
ltoes 3.6884
130
root 13.8528 8.64446 -2.42169 -1267.27 166.047 149.621
lowerback 87.3623 -4.54541 9.64404
upperback 8.29808 2.43027 -4.85865
thorax -9.41102 1.41351 -10.4739
lowerneck 6.39326 2.67758 -1.65272
upperneck 7.45622 3.37762 0.79513
head 1.19797 1.61692 0.485955
rclavicle -1.74931e-014 2.89356e-014
rhumerus -304.18 36.0082 296.376
rradius 36.2453
rwrist 45.3231
rhand -33.1237 729.861
rfingers 7.12502
rthumb -6.33367 699.976
lclavicle -1.74931e-014 2.89356e-014
lhumerus -315.696 18.1613 -292.19
lradius 31.4306
lwrist -16.8806
lhand -54.5779 -747.977
lfingers 7.12502
lthumb -26.9763 -359.883
rfemur -99.7332 -33.2518 57.4165
rtibia 122.251
rfoot 344.197 26.3069
rtoes 15.9323
lfemur -47.079 39.6589 -0.589422
ltibia 141.698
lfoot -4.88159 -32.8133
ltoes 3.45683
131
root 14.0545 8.52715 -2.39237 -1267.09 167.35 149.374
lowerback 86.4619 -4.47803 9.9125
upperback 8.61103 2.54307 -4.96694
thorax -9.14332 1.47664 -10.7523
lowerneck 6.81243 2.84199 -2.21195
upperneck 7.44992 3.54822 0.826946
head 1.11628 1.68494 0.578587
rclavicle -3.65764e-014 -2.12948e-014
rhumerus -304.643 36.7931 297.858
rradius 37.0298
rwrist 44.5833
rhand -33.3343 729.735
rfingers 7.12502
rthumb -6.53693 699.856
lclavicle -3.65764e-014 -2.12948e-014
lhumerus -316.595 17.7171 -291.972
lradius 30.7078
lwrist -16.9574
lhand -55.4909 -748.67
lfingers 7.12502
lthumb -27.8496 -360.714
rfemur -100.182 -34.0252 57.1
rtibia 122.876
rfoot 345.452 27.9342
rtoes 15.8297
lfemur -47.2079 39.4709 -1.80551
ltibia 141.727
lfoot -3.38674 -33.2333
ltoes 3.01931
132
root 14.256 8.40841 -2.36136 -1266.92 168.684 149.159
lowerback 85.5725 -4.43591 10.198
upperback 8.88705 2.64071 -5.09714
thorax -8.91551 1.53455 -11.0607
lowerneck 7.22891 3.01363 -2.83544
upperneck 7.43466 3.7175 0.895574
head 1.03002 1.75114 0.692824
rclavicle 6.67916e-014 -3.81667e-014
rhumerus -305.184 37.411 298.449
rradius 37.0161
rwrist 44.4826
rhand -33.6063 729.874
rfingers 7.12502
rthumb -6.7995 700.004
lclavicle 6.67916e-014 -3.81667e-014
lhumerus -317.852 17.0003 -292.249
lradius 30.2314
lwrist -16.6023
lhand -56.4384 -749.211
lfingers 7.12502
lthumb -28.7551 -361.406
rfemur -100.642 -34.8294 56.7492
rtibia 123.448
rfoot 346.975 29.5727
rtoes 15.9127
lfemur -47.376 39.3201 -3.0645
ltibia 141.674
lfoot -1.71458 -33.7461
ltoes 2.47254
133
root 14.4564 8.28755 -2.33018 -1266.75 170.034 148.937
lowerback 84.684 -4.42826 10.4969
upperback 9.14156 2.71341 -5.2287
thorax -8.71193 1.58123 -11.3668
lowerneck 7.49663 3.20704 -3.55364
upperneck 7.56109 3.90867 0.981047
head 1.00879 1.82436 0.832331
rclavicle 3.81667e-014 4.42296e-015
rhumerus -305.74 37.9702 298.593
rradius 36.6184
rwrist 44.6562
rhand -33.7525 730.087
rfingers 7.12502
rthumb -6.94068 700.22
lclavicle 3.81667e-014 4.42296e-015
lhumerus -319.271 16.237 -292.653
lradius 29.8645
lwrist -16.1082
lhand -57.3711 -749.797
lfingers 7.12502
lthumb -29.6457 -362.146
rfemur -101.127 -35.6796 56.4251
rtibia 124.004
rfoot 348.648 31.1852
rtoes 16.1775
lfemur -47.5944 39.1554 -4.26719
ltibia 141.598
lfoot 0.155501 -34.4486
ltoes 2.0783
134
root 14.6557 8.16674 -2.29788 -1266.63 171.403 148.689
lowerback 83.8582 -4.46308 10.8316
upperback 9.34881 2.77535 -5.3742
thorax -8.54911 1.6224 -11.7007
lowerneck 7.67633 3.40678 -4.28636
upperneck 7.78187 4.10865 1.04418
head 1.03014 1.89954 0.970699
rclavicle 1.59028e-014 3.34952e-014
rhumerus -306.331 38.543 298.804
rradius 36.4187
rwrist 44.6507
rhand -33.6034 730.322
rfingers 7.12502
rthumb -6.79675 700.451
lclavicle 1.59028e-014 3.34952e-014
lhumerus -320.765 15.4478 -293.04
lradius 29.5316
lwrist -15.6882
lhand -58.369 -750.385
lfingers 7.12502
lthumb -30.5979 -362.908
rfemur -101.567 -36.5878 56.1201
rtibia 124.513
rfoot 350.408 32.7575
rtoes 16.3496
lfemur -47.812 38.9722 -5.37234
ltibia 141.509
lfoot 2.1117 -35.2038
ltoes 1.84196
135
root 14.8516 8.04562 -2.26449 -1266.53 172.795 148.452
lowerback 83.0485 -4.49295 11.1763
upperback 9.53923 2.8481 -5.5229
thorax -8.39714 1.66863 -12.0485
lowerneck 7.79815 3.59452 -4.97649
upperneck 8.0368 4.29929 1.05583
head 1.07278 1.96945 1.08819
rclavicle -1.11319e-013 4.70126e-014
rhumerus -306.864 39.0797 299.063
rradius 36.2669
rwrist 44.4999
rhand -33.1426 730.545
rfingers 7.12502
rthumb -6.35185 700.66
lclavicle -1.11319e-013 4.70126e-014
lhumerus -322.269 14.5654 -293.467
lradius 29.2116
lwrist -15.1897
lhand -59.3661 -751.055
lfingers 7.12502
lthumb -31.5482 -363.76
rfemur -101.969 -37.4744 55.7924
rtibia 124.97
rfoot 352.423 34.2671
rtoes 16.8528
lfemur -48.0232 38.8445 -6.55673
ltibia 141.379
lfoot 3.75503 -35.8736
ltoes 1.39893
136
root 15.0442 7.92558 -2.22907 -1266.48 174.182 148.181
lowerback 82.3054 -4.57581 11.5859
upperback 9.67979 2.92665 -5.67575
thorax -8.282 1.71593 -12.4294
lowerneck 7.88267 3.78172 -5.70501
upperneck 8.3565 4.48764 1.0938
head 1.14007 2.03497 1.22296
rclavicle 4.45278e-014 -5.54609e-014
rhumerus -307.443 39.5526 299.217
rradius 36.0905
rwrist 44.3354
rhand -32.4485 730.844
rfingers 7.12502
rthumb -5.68176 700.941
lclavicle 4.45278e-014 -5.54609e-014
lhumerus -323.852 13.5226 -293.954
lradius 28.9607
lwrist -14.5788
lhand -60.3378 -751.738
lfingers 7.12502
lthumb -32.4734 -364.628
rfemur -102.324 -38.4091 55.4786
rtibia 125.389
rfoot 354.502 35.6949
rtoes 17.1597
lfemur -48.2818 38.7406 -7.77971
ltibia 141.261
lfoot 5.03326 -36.4437
ltoes 0.580055
137
root 15.2334 7.8059 -2.19241 -1266.45 175.601 147.898
lowerback 81.5902 -4.55825 11.869
upperback 9.79518 3.0119 -5.7749
thorax -8.2025 1.75305 -12.7014
lowerneck 7.99182 4.01331 -6.2855
upperneck 8.66841 4.74748 0.962859
head 1.20488 2.13618 1.2771
rclavicle -4.77083e-014 -1.80894e-014
rhumerus -307.892 40.1394 299.424
rradius 35.9694
rwrist 44.0576
rhand -31.4457 731.214
rfingers 7.12502
rthumb -4.71353 701.286
lclavicle -4.77083e-014 -1.80894e-014
lhumerus -325.486 12.538 -294.495
lradius 28.6863
lwrist -13.8799
lhand -61.2217 -752.407
lfingers 7.12502
lthumb -33.3141 -365.474
rfemur -102.628 -39.3259 55.1955
rtibia 125.749
rfoot 356.74 37.0154
rtoes 17.662
lfemur -48.5273 38.6606 -8.97609
ltibia 141.11
lfoot 6.33522 -36.9616
ltoes -0.218645
